<mxfile host="app.diagrams.net" modified="2023-11-03T19:07:57.746Z" agent="Mozilla/5.0 (Windows NT 10.0; Win64; x64) AppleWebKit/537.36 (KHTML, like Gecko) Chrome/118.0.0.0 Safari/537.36 Edg/118.0.2088.76" etag="PEiKkID1HUSyA-bobyEa" version="22.0.8" type="google">
  <diagram id="R2lEEEUBdFMjLlhIrx00" name="Page-1">
    <mxGraphModel grid="1" page="1" gridSize="10" guides="1" tooltips="1" connect="1" arrows="1" fold="1" pageScale="1" pageWidth="850" pageHeight="1100" math="0" shadow="0" extFonts="Permanent Marker^https://fonts.googleapis.com/css?family=Permanent+Marker">
      <root>
        <mxCell id="0" />
        <mxCell id="1" parent="0" />
        <mxCell id="9lTnDYtxcCjU2Nd0WMdm-4" value="Osoba" style="rounded=0;whiteSpace=wrap;html=1;" vertex="1" parent="1">
          <mxGeometry x="230" y="135" width="85" height="30" as="geometry" />
        </mxCell>
        <mxCell id="9lTnDYtxcCjU2Nd0WMdm-15" style="rounded=0;orthogonalLoop=1;jettySize=auto;html=1;exitX=0.985;exitY=0.669;exitDx=0;exitDy=0;entryX=0.071;entryY=-0.011;entryDx=0;entryDy=0;strokeColor=default;startArrow=none;startFill=0;endArrow=none;endFill=0;exitPerimeter=0;entryPerimeter=0;" edge="1" parent="1" source="9lTnDYtxcCjU2Nd0WMdm-6" target="9lTnDYtxcCjU2Nd0WMdm-4">
          <mxGeometry relative="1" as="geometry" />
        </mxCell>
        <mxCell id="9lTnDYtxcCjU2Nd0WMdm-6" value="&lt;u&gt;ID uživatele&lt;/u&gt;" style="ellipse;whiteSpace=wrap;html=1;" vertex="1" parent="1">
          <mxGeometry x="80" y="23.75" width="80" height="30" as="geometry" />
        </mxCell>
        <mxCell id="9lTnDYtxcCjU2Nd0WMdm-9" value="jméno" style="ellipse;whiteSpace=wrap;html=1;" vertex="1" parent="1">
          <mxGeometry x="222.5" y="10" width="50" height="30" as="geometry" />
        </mxCell>
        <mxCell id="9lTnDYtxcCjU2Nd0WMdm-10" value="příjmení" style="ellipse;whiteSpace=wrap;html=1;" vertex="1" parent="1">
          <mxGeometry x="261" y="36.88" width="50" height="30" as="geometry" />
        </mxCell>
        <mxCell id="9lTnDYtxcCjU2Nd0WMdm-19" style="rounded=0;orthogonalLoop=1;jettySize=auto;html=1;exitX=0.5;exitY=1;exitDx=0;exitDy=0;entryX=0.25;entryY=0;entryDx=0;entryDy=0;strokeColor=default;startArrow=none;startFill=0;endArrow=none;endFill=0;" edge="1" parent="1" source="9lTnDYtxcCjU2Nd0WMdm-9" target="9lTnDYtxcCjU2Nd0WMdm-4">
          <mxGeometry relative="1" as="geometry">
            <mxPoint x="326.1776695296637" y="90.6066017177983" as="sourcePoint" />
            <mxPoint x="265" y="145" as="targetPoint" />
          </mxGeometry>
        </mxCell>
        <mxCell id="9lTnDYtxcCjU2Nd0WMdm-20" style="rounded=0;orthogonalLoop=1;jettySize=auto;html=1;exitX=0.5;exitY=1;exitDx=0;exitDy=0;strokeColor=default;startArrow=none;startFill=0;endArrow=none;endFill=0;entryX=0.384;entryY=-0.029;entryDx=0;entryDy=0;entryPerimeter=0;" edge="1" parent="1" source="9lTnDYtxcCjU2Nd0WMdm-10" target="9lTnDYtxcCjU2Nd0WMdm-4">
          <mxGeometry relative="1" as="geometry">
            <mxPoint x="268" y="111" as="sourcePoint" />
            <mxPoint x="280" y="130" as="targetPoint" />
          </mxGeometry>
        </mxCell>
        <mxCell id="9lTnDYtxcCjU2Nd0WMdm-23" value="mail" style="ellipse;whiteSpace=wrap;html=1;" vertex="1" parent="1">
          <mxGeometry x="170" y="23.75" width="40" height="30" as="geometry" />
        </mxCell>
        <mxCell id="9lTnDYtxcCjU2Nd0WMdm-42" value="&lt;u&gt;verze&lt;/u&gt;" style="ellipse;whiteSpace=wrap;html=1;" vertex="1" parent="1">
          <mxGeometry x="581" y="530" width="40" height="30" as="geometry" />
        </mxCell>
        <mxCell id="9lTnDYtxcCjU2Nd0WMdm-43" value="Příspěvek" style="rounded=0;whiteSpace=wrap;html=1;" vertex="1" parent="1">
          <mxGeometry x="450" y="500" width="60" height="30" as="geometry" />
        </mxCell>
        <mxCell id="9lTnDYtxcCjU2Nd0WMdm-45" value="&lt;u&gt;ID příspěvku&lt;/u&gt;" style="ellipse;whiteSpace=wrap;html=1;" vertex="1" parent="1">
          <mxGeometry x="583.5" y="485" width="81.5" height="30" as="geometry" />
        </mxCell>
        <mxCell id="9lTnDYtxcCjU2Nd0WMdm-46" value="název" style="ellipse;whiteSpace=wrap;html=1;" vertex="1" parent="1">
          <mxGeometry x="571" y="575" width="50" height="30" as="geometry" />
        </mxCell>
        <mxCell id="9lTnDYtxcCjU2Nd0WMdm-47" value="cesta" style="ellipse;whiteSpace=wrap;html=1;" vertex="1" parent="1">
          <mxGeometry x="530" y="415" width="50" height="30" as="geometry" />
        </mxCell>
        <mxCell id="9lTnDYtxcCjU2Nd0WMdm-48" style="rounded=0;orthogonalLoop=1;jettySize=auto;html=1;exitX=0;exitY=0.5;exitDx=0;exitDy=0;entryX=1;entryY=0.5;entryDx=0;entryDy=0;strokeColor=default;startArrow=none;startFill=0;endArrow=none;endFill=0;" edge="1" parent="1" source="9lTnDYtxcCjU2Nd0WMdm-45" target="9lTnDYtxcCjU2Nd0WMdm-43">
          <mxGeometry relative="1" as="geometry">
            <mxPoint x="380" y="555" as="sourcePoint" />
            <mxPoint x="440" y="523" as="targetPoint" />
          </mxGeometry>
        </mxCell>
        <mxCell id="9lTnDYtxcCjU2Nd0WMdm-50" style="rounded=0;orthogonalLoop=1;jettySize=auto;html=1;exitX=0.223;exitY=0.077;exitDx=0;exitDy=0;entryX=1;entryY=1;entryDx=0;entryDy=0;strokeColor=default;startArrow=none;startFill=0;endArrow=none;endFill=0;exitPerimeter=0;" edge="1" parent="1" source="9lTnDYtxcCjU2Nd0WMdm-46" target="9lTnDYtxcCjU2Nd0WMdm-43">
          <mxGeometry relative="1" as="geometry">
            <mxPoint x="410" y="500" as="sourcePoint" />
            <mxPoint x="450" y="525" as="targetPoint" />
          </mxGeometry>
        </mxCell>
        <mxCell id="9lTnDYtxcCjU2Nd0WMdm-51" style="rounded=0;orthogonalLoop=1;jettySize=auto;html=1;exitX=0.5;exitY=1;exitDx=0;exitDy=0;entryX=0.75;entryY=0;entryDx=0;entryDy=0;strokeColor=default;startArrow=none;startFill=0;endArrow=none;endFill=0;" edge="1" parent="1" source="9lTnDYtxcCjU2Nd0WMdm-47" target="9lTnDYtxcCjU2Nd0WMdm-43">
          <mxGeometry relative="1" as="geometry">
            <mxPoint x="453" y="491" as="sourcePoint" />
            <mxPoint x="465" y="525" as="targetPoint" />
          </mxGeometry>
        </mxCell>
        <mxCell id="9lTnDYtxcCjU2Nd0WMdm-55" value="stav" style="ellipse;whiteSpace=wrap;html=1;" vertex="1" parent="1">
          <mxGeometry x="576" y="440" width="50" height="30" as="geometry" />
        </mxCell>
        <mxCell id="9lTnDYtxcCjU2Nd0WMdm-56" style="rounded=0;orthogonalLoop=1;jettySize=auto;html=1;exitX=0;exitY=1;exitDx=0;exitDy=0;strokeColor=default;startArrow=none;startFill=0;endArrow=none;endFill=0;entryX=1;entryY=0;entryDx=0;entryDy=0;" edge="1" parent="1" source="9lTnDYtxcCjU2Nd0WMdm-55" target="9lTnDYtxcCjU2Nd0WMdm-43">
          <mxGeometry relative="1" as="geometry">
            <mxPoint x="495" y="495" as="sourcePoint" />
            <mxPoint x="500" y="515" as="targetPoint" />
          </mxGeometry>
        </mxCell>
        <mxCell id="9lTnDYtxcCjU2Nd0WMdm-59" value="aktuálnost" style="ellipse;whiteSpace=wrap;html=1;" vertex="1" parent="1">
          <mxGeometry x="506" y="185" width="65" height="30" as="geometry" />
        </mxCell>
        <mxCell id="9lTnDYtxcCjU2Nd0WMdm-60" value="Recenze" style="rounded=0;whiteSpace=wrap;html=1;" vertex="1" parent="1">
          <mxGeometry x="446" y="310" width="60" height="30" as="geometry" />
        </mxCell>
        <mxCell id="9lTnDYtxcCjU2Nd0WMdm-61" value="&lt;u&gt;ID recenze&lt;/u&gt;" style="ellipse;whiteSpace=wrap;html=1;" vertex="1" parent="1">
          <mxGeometry x="591" y="370" width="64" height="45" as="geometry" />
        </mxCell>
        <mxCell id="9lTnDYtxcCjU2Nd0WMdm-62" value="originalita" style="ellipse;whiteSpace=wrap;html=1;" vertex="1" parent="1">
          <mxGeometry x="583.5" y="185" width="55" height="30" as="geometry" />
        </mxCell>
        <mxCell id="9lTnDYtxcCjU2Nd0WMdm-63" value="cesta" style="ellipse;whiteSpace=wrap;html=1;" vertex="1" parent="1">
          <mxGeometry x="556" y="330" width="50" height="30" as="geometry" />
        </mxCell>
        <mxCell id="9lTnDYtxcCjU2Nd0WMdm-64" style="rounded=0;orthogonalLoop=1;jettySize=auto;html=1;exitX=0;exitY=0;exitDx=0;exitDy=0;strokeColor=default;startArrow=none;startFill=0;endArrow=none;endFill=0;entryX=1;entryY=1;entryDx=0;entryDy=0;" edge="1" parent="1" source="9lTnDYtxcCjU2Nd0WMdm-61" target="9lTnDYtxcCjU2Nd0WMdm-60">
          <mxGeometry relative="1" as="geometry">
            <mxPoint x="401" y="350" as="sourcePoint" />
            <mxPoint x="500" y="340" as="targetPoint" />
          </mxGeometry>
        </mxCell>
        <mxCell id="9lTnDYtxcCjU2Nd0WMdm-65" style="rounded=0;orthogonalLoop=1;jettySize=auto;html=1;exitX=0.5;exitY=1;exitDx=0;exitDy=0;strokeColor=default;startArrow=none;startFill=0;endArrow=none;endFill=0;entryX=0.822;entryY=-0.007;entryDx=0;entryDy=0;entryPerimeter=0;" edge="1" parent="1" source="9lTnDYtxcCjU2Nd0WMdm-59" target="9lTnDYtxcCjU2Nd0WMdm-60">
          <mxGeometry relative="1" as="geometry">
            <mxPoint x="421" y="335" as="sourcePoint" />
            <mxPoint x="498" y="305" as="targetPoint" />
          </mxGeometry>
        </mxCell>
        <mxCell id="9lTnDYtxcCjU2Nd0WMdm-66" style="rounded=0;orthogonalLoop=1;jettySize=auto;html=1;strokeColor=default;startArrow=none;startFill=0;endArrow=none;endFill=0;exitX=0;exitY=1;exitDx=0;exitDy=0;entryX=0.923;entryY=0;entryDx=0;entryDy=0;entryPerimeter=0;" edge="1" parent="1" source="9lTnDYtxcCjU2Nd0WMdm-62" target="9lTnDYtxcCjU2Nd0WMdm-60">
          <mxGeometry relative="1" as="geometry">
            <mxPoint x="415" y="405" as="sourcePoint" />
            <mxPoint x="520" y="300" as="targetPoint" />
          </mxGeometry>
        </mxCell>
        <mxCell id="9lTnDYtxcCjU2Nd0WMdm-67" style="rounded=0;orthogonalLoop=1;jettySize=auto;html=1;exitX=0;exitY=0.5;exitDx=0;exitDy=0;entryX=1;entryY=0.75;entryDx=0;entryDy=0;strokeColor=default;startArrow=none;startFill=0;endArrow=none;endFill=0;" edge="1" parent="1" source="9lTnDYtxcCjU2Nd0WMdm-63" target="9lTnDYtxcCjU2Nd0WMdm-60">
          <mxGeometry relative="1" as="geometry">
            <mxPoint x="474" y="286" as="sourcePoint" />
            <mxPoint x="486" y="320" as="targetPoint" />
          </mxGeometry>
        </mxCell>
        <mxCell id="9lTnDYtxcCjU2Nd0WMdm-68" value="jazyková úroveň" style="ellipse;whiteSpace=wrap;html=1;" vertex="1" parent="1">
          <mxGeometry x="571" y="235" width="79" height="35" as="geometry" />
        </mxCell>
        <mxCell id="9lTnDYtxcCjU2Nd0WMdm-69" style="rounded=0;orthogonalLoop=1;jettySize=auto;html=1;exitX=0;exitY=1;exitDx=0;exitDy=0;strokeColor=default;startArrow=none;startFill=0;endArrow=none;endFill=0;entryX=1;entryY=0;entryDx=0;entryDy=0;" edge="1" parent="1" source="9lTnDYtxcCjU2Nd0WMdm-68" target="9lTnDYtxcCjU2Nd0WMdm-60">
          <mxGeometry relative="1" as="geometry">
            <mxPoint x="516" y="290" as="sourcePoint" />
            <mxPoint x="521" y="310" as="targetPoint" />
          </mxGeometry>
        </mxCell>
        <mxCell id="9lTnDYtxcCjU2Nd0WMdm-70" value="odborná úroveň" style="ellipse;whiteSpace=wrap;html=1;" vertex="1" parent="1">
          <mxGeometry x="545" y="285" width="65" height="40" as="geometry" />
        </mxCell>
        <mxCell id="9lTnDYtxcCjU2Nd0WMdm-71" style="rounded=0;orthogonalLoop=1;jettySize=auto;html=1;exitX=0;exitY=0.5;exitDx=0;exitDy=0;strokeColor=default;startArrow=none;startFill=0;endArrow=none;endFill=0;entryX=1;entryY=0.25;entryDx=0;entryDy=0;" edge="1" parent="1" source="9lTnDYtxcCjU2Nd0WMdm-70" target="9lTnDYtxcCjU2Nd0WMdm-60">
          <mxGeometry relative="1" as="geometry">
            <mxPoint x="558" y="296" as="sourcePoint" />
            <mxPoint x="531" y="320" as="targetPoint" />
          </mxGeometry>
        </mxCell>
        <mxCell id="9lTnDYtxcCjU2Nd0WMdm-91" value="píše" style="rhombus;whiteSpace=wrap;html=1;" vertex="1" parent="1">
          <mxGeometry x="455" y="205" width="40" height="40" as="geometry" />
        </mxCell>
        <mxCell id="9lTnDYtxcCjU2Nd0WMdm-93" value="" style="endArrow=none;html=1;rounded=0;entryX=0.5;entryY=1;entryDx=0;entryDy=0;exitX=0.5;exitY=0;exitDx=0;exitDy=0;" edge="1" parent="1" source="9lTnDYtxcCjU2Nd0WMdm-60" target="9lTnDYtxcCjU2Nd0WMdm-91">
          <mxGeometry width="50" height="50" relative="1" as="geometry">
            <mxPoint x="475" y="305" as="sourcePoint" />
            <mxPoint x="494" y="185" as="targetPoint" />
          </mxGeometry>
        </mxCell>
        <mxCell id="9lTnDYtxcCjU2Nd0WMdm-94" value="hodnotí" style="rhombus;whiteSpace=wrap;html=1;" vertex="1" parent="1">
          <mxGeometry x="445.38" y="385" width="61.25" height="50" as="geometry" />
        </mxCell>
        <mxCell id="9lTnDYtxcCjU2Nd0WMdm-95" value="" style="endArrow=none;html=1;rounded=0;entryX=0.5;entryY=1;entryDx=0;entryDy=0;exitX=0.5;exitY=0;exitDx=0;exitDy=0;" edge="1" parent="1" source="9lTnDYtxcCjU2Nd0WMdm-94" target="9lTnDYtxcCjU2Nd0WMdm-60">
          <mxGeometry width="50" height="50" relative="1" as="geometry">
            <mxPoint x="486" y="320" as="sourcePoint" />
            <mxPoint x="484" y="255" as="targetPoint" />
          </mxGeometry>
        </mxCell>
        <mxCell id="9lTnDYtxcCjU2Nd0WMdm-97" value="administruje" style="rhombus;whiteSpace=wrap;html=1;" vertex="1" parent="1">
          <mxGeometry x="339.5" y="297.5" width="81" height="55" as="geometry" />
        </mxCell>
        <mxCell id="9lTnDYtxcCjU2Nd0WMdm-98" value="" style="endArrow=none;html=1;rounded=0;exitX=0;exitY=0.5;exitDx=0;exitDy=0;entryX=1;entryY=0.5;entryDx=0;entryDy=0;" edge="1" parent="1" source="9lTnDYtxcCjU2Nd0WMdm-60" target="9lTnDYtxcCjU2Nd0WMdm-97">
          <mxGeometry width="50" height="50" relative="1" as="geometry">
            <mxPoint x="355" y="385" as="sourcePoint" />
            <mxPoint x="405" y="335" as="targetPoint" />
          </mxGeometry>
        </mxCell>
        <mxCell id="9lTnDYtxcCjU2Nd0WMdm-103" value="&lt;u&gt;ID_časopisu&lt;/u&gt;" style="ellipse;whiteSpace=wrap;html=1;" vertex="1" parent="1">
          <mxGeometry x="381.25" y="735" width="73.75" height="40" as="geometry" />
        </mxCell>
        <mxCell id="9lTnDYtxcCjU2Nd0WMdm-105" value="" style="rounded=0;whiteSpace=wrap;html=1;" vertex="1" parent="1">
          <mxGeometry x="210" y="500" width="105" height="55" as="geometry" />
        </mxCell>
        <mxCell id="9lTnDYtxcCjU2Nd0WMdm-107" value="Seznam autorů článku" style="rounded=0;whiteSpace=wrap;html=1;" vertex="1" parent="1">
          <mxGeometry x="220" y="507.5" width="85" height="40" as="geometry" />
        </mxCell>
        <mxCell id="9lTnDYtxcCjU2Nd0WMdm-108" value="je psán" style="rhombus;whiteSpace=wrap;html=1;" vertex="1" parent="1">
          <mxGeometry x="351.25" y="500" width="57.5" height="45" as="geometry" />
        </mxCell>
        <mxCell id="9lTnDYtxcCjU2Nd0WMdm-109" value="" style="endArrow=none;html=1;rounded=0;exitX=1;exitY=0.5;exitDx=0;exitDy=0;entryX=0;entryY=0.75;entryDx=0;entryDy=0;" edge="1" parent="1" source="9lTnDYtxcCjU2Nd0WMdm-108" target="9lTnDYtxcCjU2Nd0WMdm-43">
          <mxGeometry width="50" height="50" relative="1" as="geometry">
            <mxPoint x="355" y="385" as="sourcePoint" />
            <mxPoint x="435" y="525" as="targetPoint" />
          </mxGeometry>
        </mxCell>
        <mxCell id="9lTnDYtxcCjU2Nd0WMdm-112" value="píše" style="rhombus;whiteSpace=wrap;html=1;" vertex="1" parent="1">
          <mxGeometry x="229" y="420" width="52" height="45" as="geometry" />
        </mxCell>
        <mxCell id="9lTnDYtxcCjU2Nd0WMdm-114" value="" style="endArrow=classic;html=1;rounded=0;entryX=0.437;entryY=-0.022;entryDx=0;entryDy=0;exitX=0.5;exitY=1;exitDx=0;exitDy=0;entryPerimeter=0;" edge="1" parent="1" source="9lTnDYtxcCjU2Nd0WMdm-112" target="9lTnDYtxcCjU2Nd0WMdm-105">
          <mxGeometry width="50" height="50" relative="1" as="geometry">
            <mxPoint x="359" y="536" as="sourcePoint" />
            <mxPoint x="325" y="538" as="targetPoint" />
          </mxGeometry>
        </mxCell>
        <mxCell id="9lTnDYtxcCjU2Nd0WMdm-117" value="1" style="text;html=1;strokeColor=none;fillColor=none;align=center;verticalAlign=middle;whiteSpace=wrap;rounded=0;" vertex="1" parent="1">
          <mxGeometry x="476.88" y="478.75" width="20" height="22.5" as="geometry" />
        </mxCell>
        <mxCell id="9lTnDYtxcCjU2Nd0WMdm-119" value="N" style="text;html=1;strokeColor=none;fillColor=none;align=center;verticalAlign=middle;whiteSpace=wrap;rounded=0;" vertex="1" parent="1">
          <mxGeometry x="261" y="477.5" width="20" height="22.5" as="geometry" />
        </mxCell>
        <mxCell id="9lTnDYtxcCjU2Nd0WMdm-129" value="1" style="text;html=1;strokeColor=none;fillColor=none;align=center;verticalAlign=middle;whiteSpace=wrap;rounded=0;" vertex="1" parent="1">
          <mxGeometry x="305" y="161.25" width="20" height="22.5" as="geometry" />
        </mxCell>
        <mxCell id="9lTnDYtxcCjU2Nd0WMdm-130" value="N" style="text;html=1;strokeColor=none;fillColor=none;align=center;verticalAlign=middle;whiteSpace=wrap;rounded=0;" vertex="1" parent="1">
          <mxGeometry x="426" y="307.5" width="20" height="22.5" as="geometry" />
        </mxCell>
        <mxCell id="9lTnDYtxcCjU2Nd0WMdm-131" value="1" style="text;html=1;strokeColor=none;fillColor=none;align=center;verticalAlign=middle;whiteSpace=wrap;rounded=0;" vertex="1" parent="1">
          <mxGeometry x="319.5" y="155" width="20" height="22.5" as="geometry" />
        </mxCell>
        <mxCell id="9lTnDYtxcCjU2Nd0WMdm-132" value="N" style="text;html=1;strokeColor=none;fillColor=none;align=center;verticalAlign=middle;whiteSpace=wrap;rounded=0;" vertex="1" parent="1">
          <mxGeometry x="455" y="290" width="20" height="22.5" as="geometry" />
        </mxCell>
        <mxCell id="3qPXt3XiF-Rb8np5DTeW-1" value="2" style="text;html=1;strokeColor=none;fillColor=none;align=center;verticalAlign=middle;whiteSpace=wrap;rounded=0;" vertex="1" parent="1">
          <mxGeometry x="476.88" y="340" width="20" height="22.5" as="geometry" />
        </mxCell>
        <mxCell id="nPtMU7uVs6kKkiSE4Vyv-3" value="je zahrnut" style="rhombus;whiteSpace=wrap;html=1;" vertex="1" parent="1">
          <mxGeometry x="445" y="580" width="69" height="55" as="geometry" />
        </mxCell>
        <mxCell id="nPtMU7uVs6kKkiSE4Vyv-4" value="Časopis" style="rounded=0;whiteSpace=wrap;html=1;" vertex="1" parent="1">
          <mxGeometry x="450" y="675" width="85" height="30" as="geometry" />
        </mxCell>
        <mxCell id="nPtMU7uVs6kKkiSE4Vyv-20" value="" style="rounded=0;orthogonalLoop=1;jettySize=auto;html=1;exitX=0.091;exitY=0.216;exitDx=0;exitDy=0;entryX=1;entryY=0.75;entryDx=0;entryDy=0;strokeColor=default;startArrow=none;startFill=0;endArrow=none;endFill=0;exitPerimeter=0;" edge="1" parent="1" source="9lTnDYtxcCjU2Nd0WMdm-42" target="9lTnDYtxcCjU2Nd0WMdm-43">
          <mxGeometry relative="1" as="geometry">
            <mxPoint x="594" y="532" as="sourcePoint" />
            <mxPoint x="491" y="535" as="targetPoint" />
          </mxGeometry>
        </mxCell>
        <mxCell id="nPtMU7uVs6kKkiSE4Vyv-19" value="N" style="text;html=1;strokeColor=none;fillColor=none;align=center;verticalAlign=middle;whiteSpace=wrap;rounded=0;" vertex="1" parent="1">
          <mxGeometry x="482.5" y="530" width="20" height="22.5" as="geometry" />
        </mxCell>
        <mxCell id="nPtMU7uVs6kKkiSE4Vyv-24" value="Max počet příspěvků" style="ellipse;whiteSpace=wrap;html=1;" vertex="1" parent="1">
          <mxGeometry x="566.62" y="735" width="82.12" height="50" as="geometry" />
        </mxCell>
        <mxCell id="nPtMU7uVs6kKkiSE4Vyv-28" value="" style="endArrow=none;html=1;rounded=0;entryX=0.25;entryY=1;entryDx=0;entryDy=0;exitX=0.712;exitY=0.026;exitDx=0;exitDy=0;exitPerimeter=0;" edge="1" parent="1" source="9lTnDYtxcCjU2Nd0WMdm-103" target="nPtMU7uVs6kKkiSE4Vyv-4">
          <mxGeometry width="50" height="50" relative="1" as="geometry">
            <mxPoint x="435" y="735" as="sourcePoint" />
            <mxPoint x="485" y="685" as="targetPoint" />
          </mxGeometry>
        </mxCell>
        <mxCell id="nPtMU7uVs6kKkiSE4Vyv-32" value="" style="endArrow=none;html=1;rounded=0;entryX=1;entryY=0.75;entryDx=0;entryDy=0;exitX=0;exitY=0;exitDx=0;exitDy=0;" edge="1" parent="1" source="nPtMU7uVs6kKkiSE4Vyv-24" target="nPtMU7uVs6kKkiSE4Vyv-4">
          <mxGeometry width="50" height="50" relative="1" as="geometry">
            <mxPoint x="582" y="749" as="sourcePoint" />
            <mxPoint x="545" y="715" as="targetPoint" />
          </mxGeometry>
        </mxCell>
        <mxCell id="nPtMU7uVs6kKkiSE4Vyv-51" value="zveřejňuje" style="rhombus;whiteSpace=wrap;html=1;" vertex="1" parent="1">
          <mxGeometry x="351.25" y="415" width="81" height="55" as="geometry" />
        </mxCell>
        <mxCell id="nPtMU7uVs6kKkiSE4Vyv-54" value="" style="endArrow=none;html=1;rounded=0;entryX=0;entryY=0;entryDx=0;entryDy=0;" edge="1" parent="1" target="9lTnDYtxcCjU2Nd0WMdm-43">
          <mxGeometry width="50" height="50" relative="1" as="geometry">
            <mxPoint x="392" y="470" as="sourcePoint" />
            <mxPoint x="445" y="505" as="targetPoint" />
            <Array as="points">
              <mxPoint x="392" y="500" />
            </Array>
          </mxGeometry>
        </mxCell>
        <mxCell id="nPtMU7uVs6kKkiSE4Vyv-55" value="téma&amp;nbsp;" style="ellipse;whiteSpace=wrap;html=1;" vertex="1" parent="1">
          <mxGeometry x="476.88" y="745" width="73.75" height="40" as="geometry" />
        </mxCell>
        <mxCell id="nPtMU7uVs6kKkiSE4Vyv-60" value="" style="endArrow=none;html=1;rounded=0;exitX=0.605;exitY=0.997;exitDx=0;exitDy=0;exitPerimeter=0;entryX=0.5;entryY=0;entryDx=0;entryDy=0;" edge="1" parent="1" source="nPtMU7uVs6kKkiSE4Vyv-4" target="nPtMU7uVs6kKkiSE4Vyv-55">
          <mxGeometry width="50" height="50" relative="1" as="geometry">
            <mxPoint x="505" y="725" as="sourcePoint" />
            <mxPoint x="505" y="735" as="targetPoint" />
          </mxGeometry>
        </mxCell>
        <mxCell id="nPtMU7uVs6kKkiSE4Vyv-70" value="přiděluje" style="rhombus;whiteSpace=wrap;html=1;" vertex="1" parent="1">
          <mxGeometry x="553.5" y="120" width="95" height="45" as="geometry" />
        </mxCell>
        <mxCell id="nPtMU7uVs6kKkiSE4Vyv-80" value="Úkol" style="rounded=0;whiteSpace=wrap;html=1;" vertex="1" parent="1">
          <mxGeometry x="648.74" y="65" width="85" height="30" as="geometry" />
        </mxCell>
        <mxCell id="nPtMU7uVs6kKkiSE4Vyv-81" value="" style="endArrow=none;html=1;rounded=0;exitX=1;exitY=0.5;exitDx=0;exitDy=0;entryX=0;entryY=1;entryDx=0;entryDy=0;" edge="1" parent="1" source="nPtMU7uVs6kKkiSE4Vyv-70" target="nPtMU7uVs6kKkiSE4Vyv-80">
          <mxGeometry width="50" height="50" relative="1" as="geometry">
            <mxPoint x="415" y="405" as="sourcePoint" />
            <mxPoint x="650" y="100" as="targetPoint" />
          </mxGeometry>
        </mxCell>
        <mxCell id="nPtMU7uVs6kKkiSE4Vyv-83" value="&lt;u&gt;ID úkolu&lt;/u&gt;" style="ellipse;whiteSpace=wrap;html=1;" vertex="1" parent="1">
          <mxGeometry x="780" y="13.129999999999995" width="60" height="23.75" as="geometry" />
        </mxCell>
        <mxCell id="nPtMU7uVs6kKkiSE4Vyv-84" value="název úkolu" style="ellipse;whiteSpace=wrap;html=1;" vertex="1" parent="1">
          <mxGeometry x="780" y="50" width="60" height="33.75" as="geometry" />
        </mxCell>
        <mxCell id="nPtMU7uVs6kKkiSE4Vyv-85" value="text úkolu" style="ellipse;whiteSpace=wrap;html=1;" vertex="1" parent="1">
          <mxGeometry x="770" y="95" width="60" height="33.75" as="geometry" />
        </mxCell>
        <mxCell id="nPtMU7uVs6kKkiSE4Vyv-88" value="" style="endArrow=none;html=1;rounded=0;exitX=0;exitY=0.5;exitDx=0;exitDy=0;entryX=1;entryY=0.5;entryDx=0;entryDy=0;" edge="1" parent="1" source="nPtMU7uVs6kKkiSE4Vyv-84" target="nPtMU7uVs6kKkiSE4Vyv-80">
          <mxGeometry width="50" height="50" relative="1" as="geometry">
            <mxPoint x="685" y="145" as="sourcePoint" />
            <mxPoint x="735" y="115" as="targetPoint" />
          </mxGeometry>
        </mxCell>
        <mxCell id="nPtMU7uVs6kKkiSE4Vyv-89" value="" style="endArrow=none;html=1;rounded=0;entryX=1;entryY=0;entryDx=0;entryDy=0;exitX=0;exitY=0.5;exitDx=0;exitDy=0;" edge="1" parent="1" source="nPtMU7uVs6kKkiSE4Vyv-83" target="nPtMU7uVs6kKkiSE4Vyv-80">
          <mxGeometry width="50" height="50" relative="1" as="geometry">
            <mxPoint x="775" y="125" as="sourcePoint" />
            <mxPoint x="745" y="115" as="targetPoint" />
          </mxGeometry>
        </mxCell>
        <mxCell id="nPtMU7uVs6kKkiSE4Vyv-92" value="Termín" style="ellipse;whiteSpace=wrap;html=1;" vertex="1" parent="1">
          <mxGeometry x="518.5" y="370" width="40" height="30" as="geometry" />
        </mxCell>
        <mxCell id="nPtMU7uVs6kKkiSE4Vyv-93" value="" style="endArrow=none;html=1;rounded=0;exitX=0;exitY=0;exitDx=0;exitDy=0;entryX=1;entryY=0;entryDx=0;entryDy=0;" edge="1" parent="1" source="nPtMU7uVs6kKkiSE4Vyv-92" target="3qPXt3XiF-Rb8np5DTeW-1">
          <mxGeometry width="50" height="50" relative="1" as="geometry">
            <mxPoint x="486" y="395" as="sourcePoint" />
            <mxPoint x="495" y="345" as="targetPoint" />
          </mxGeometry>
        </mxCell>
        <mxCell id="bgzfuVShhrfwyZQ0xUd9-8" value="" style="endArrow=none;html=1;rounded=0;entryX=0.5;entryY=1;entryDx=0;entryDy=0;exitX=0.5;exitY=0;exitDx=0;exitDy=0;" edge="1" parent="1" source="nPtMU7uVs6kKkiSE4Vyv-3" target="9lTnDYtxcCjU2Nd0WMdm-43">
          <mxGeometry width="50" height="50" relative="1" as="geometry">
            <mxPoint x="485" y="585" as="sourcePoint" />
            <mxPoint x="491" y="640" as="targetPoint" />
          </mxGeometry>
        </mxCell>
        <mxCell id="bgzfuVShhrfwyZQ0xUd9-10" value="1" style="text;html=1;strokeColor=none;fillColor=none;align=center;verticalAlign=middle;whiteSpace=wrap;rounded=0;" vertex="1" parent="1">
          <mxGeometry x="475" y="655" width="20" height="22.5" as="geometry" />
        </mxCell>
        <mxCell id="bgzfuVShhrfwyZQ0xUd9-11" value="Profil" style="rounded=0;whiteSpace=wrap;html=1;" vertex="1" parent="1">
          <mxGeometry x="-30" y="131.25" width="100" height="37.5" as="geometry" />
        </mxCell>
        <mxCell id="bgzfuVShhrfwyZQ0xUd9-25" value="role: autor / neregistrovaný autor (bez loginu)" style="text;html=1;strokeColor=none;fillColor=none;align=center;verticalAlign=middle;whiteSpace=wrap;rounded=0;rotation=90;" vertex="1" parent="1">
          <mxGeometry x="140.32" y="285" width="244.37" height="30" as="geometry" />
        </mxCell>
        <mxCell id="bgzfuVShhrfwyZQ0xUd9-26" value="role: redaktor" style="text;html=1;strokeColor=none;fillColor=none;align=center;verticalAlign=middle;whiteSpace=wrap;rounded=0;rotation=90;" vertex="1" parent="1">
          <mxGeometry x="236" y="205" width="110" height="30" as="geometry" />
        </mxCell>
        <mxCell id="bgzfuVShhrfwyZQ0xUd9-27" value="role: redaktor" style="text;html=1;strokeColor=none;fillColor=none;align=center;verticalAlign=middle;whiteSpace=wrap;rounded=0;rotation=90;" vertex="1" parent="1">
          <mxGeometry x="272.5" y="205" width="85" height="30" as="geometry" />
        </mxCell>
        <mxCell id="bgzfuVShhrfwyZQ0xUd9-31" value="N" style="text;html=1;strokeColor=none;fillColor=none;align=center;verticalAlign=middle;whiteSpace=wrap;rounded=0;" vertex="1" parent="1">
          <mxGeometry x="432.25" y="481.25" width="20" height="22.5" as="geometry" />
        </mxCell>
        <mxCell id="bgzfuVShhrfwyZQ0xUd9-35" value="1" style="text;html=1;strokeColor=none;fillColor=none;align=center;verticalAlign=middle;whiteSpace=wrap;rounded=0;" vertex="1" parent="1">
          <mxGeometry x="281" y="162.5" width="20" height="22.5" as="geometry" />
        </mxCell>
        <mxCell id="bgzfuVShhrfwyZQ0xUd9-36" value="role: recenzent" style="text;html=1;strokeColor=none;fillColor=none;align=center;verticalAlign=middle;whiteSpace=wrap;rounded=0;" vertex="1" parent="1">
          <mxGeometry x="335" y="157.5" width="110" height="20" as="geometry" />
        </mxCell>
        <mxCell id="bgzfuVShhrfwyZQ0xUd9-46" value="" style="endArrow=none;html=1;rounded=0;entryX=0.169;entryY=0.022;entryDx=0;entryDy=0;exitX=1;exitY=1;exitDx=0;exitDy=0;entryPerimeter=0;" edge="1" parent="1" source="9lTnDYtxcCjU2Nd0WMdm-23" target="9lTnDYtxcCjU2Nd0WMdm-4">
          <mxGeometry width="50" height="50" relative="1" as="geometry">
            <mxPoint x="405" y="495" as="sourcePoint" />
            <mxPoint x="455" y="445" as="targetPoint" />
          </mxGeometry>
        </mxCell>
        <mxCell id="bgzfuVShhrfwyZQ0xUd9-50" value="role: šéfredaktor" style="text;html=1;strokeColor=none;fillColor=none;align=center;verticalAlign=middle;whiteSpace=wrap;rounded=0;" vertex="1" parent="1">
          <mxGeometry x="336.75" y="122.5" width="110" height="20" as="geometry" />
        </mxCell>
        <mxCell id="bgzfuVShhrfwyZQ0xUd9-53" value="plní" style="rhombus;whiteSpace=wrap;html=1;" vertex="1" parent="1">
          <mxGeometry x="435" y="50" width="67.75" height="55" as="geometry" />
        </mxCell>
        <mxCell id="bgzfuVShhrfwyZQ0xUd9-54" value="" style="endArrow=none;html=1;rounded=0;entryX=1;entryY=0.5;entryDx=0;entryDy=0;exitX=-0.002;exitY=0.402;exitDx=0;exitDy=0;exitPerimeter=0;" edge="1" parent="1" source="nPtMU7uVs6kKkiSE4Vyv-80" target="bgzfuVShhrfwyZQ0xUd9-53">
          <mxGeometry width="50" height="50" relative="1" as="geometry">
            <mxPoint x="400" y="420" as="sourcePoint" />
            <mxPoint x="450" y="370" as="targetPoint" />
          </mxGeometry>
        </mxCell>
        <mxCell id="bgzfuVShhrfwyZQ0xUd9-55" value="" style="endArrow=none;html=1;rounded=0;entryX=0;entryY=0.5;entryDx=0;entryDy=0;exitX=1;exitY=1;exitDx=0;exitDy=0;" edge="1" parent="1" source="nPtMU7uVs6kKkiSE4Vyv-80" target="nPtMU7uVs6kKkiSE4Vyv-85">
          <mxGeometry width="50" height="50" relative="1" as="geometry">
            <mxPoint x="400" y="420" as="sourcePoint" />
            <mxPoint x="450" y="370" as="targetPoint" />
          </mxGeometry>
        </mxCell>
        <mxCell id="bgzfuVShhrfwyZQ0xUd9-56" value="deadline" style="ellipse;whiteSpace=wrap;html=1;" vertex="1" parent="1">
          <mxGeometry x="720" y="133.13" width="60" height="33.75" as="geometry" />
        </mxCell>
        <mxCell id="bgzfuVShhrfwyZQ0xUd9-57" value="" style="endArrow=none;html=1;rounded=0;entryX=0.35;entryY=0.055;entryDx=0;entryDy=0;entryPerimeter=0;exitX=0.827;exitY=1.033;exitDx=0;exitDy=0;exitPerimeter=0;" edge="1" parent="1" source="nPtMU7uVs6kKkiSE4Vyv-80" target="bgzfuVShhrfwyZQ0xUd9-56">
          <mxGeometry width="50" height="50" relative="1" as="geometry">
            <mxPoint x="720" y="100" as="sourcePoint" />
            <mxPoint x="780" y="122" as="targetPoint" />
          </mxGeometry>
        </mxCell>
        <mxCell id="bgzfuVShhrfwyZQ0xUd9-60" value="N" style="text;html=1;strokeColor=none;fillColor=none;align=center;verticalAlign=middle;whiteSpace=wrap;rounded=0;" vertex="1" parent="1">
          <mxGeometry x="648.74" y="95" width="20" height="22.5" as="geometry" />
        </mxCell>
        <mxCell id="bgzfuVShhrfwyZQ0xUd9-61" value="N" style="text;html=1;strokeColor=none;fillColor=none;align=center;verticalAlign=middle;whiteSpace=wrap;rounded=0;" vertex="1" parent="1">
          <mxGeometry x="628.74" y="53.75" width="20" height="22.5" as="geometry" />
        </mxCell>
        <mxCell id="bgzfuVShhrfwyZQ0xUd9-62" value="1" style="text;html=1;strokeColor=none;fillColor=none;align=center;verticalAlign=middle;whiteSpace=wrap;rounded=0;" vertex="1" parent="1">
          <mxGeometry x="295" y="112.5" width="20" height="22.5" as="geometry" />
        </mxCell>
        <mxCell id="bgzfuVShhrfwyZQ0xUd9-64" value="stav" style="ellipse;whiteSpace=wrap;html=1;" vertex="1" parent="1">
          <mxGeometry x="661.24" y="161.25" width="60" height="33.75" as="geometry" />
        </mxCell>
        <mxCell id="bgzfuVShhrfwyZQ0xUd9-65" value="" style="endArrow=none;html=1;rounded=0;entryX=0.5;entryY=0;entryDx=0;entryDy=0;exitX=0.5;exitY=1;exitDx=0;exitDy=0;" edge="1" parent="1" source="nPtMU7uVs6kKkiSE4Vyv-80" target="bgzfuVShhrfwyZQ0xUd9-64">
          <mxGeometry width="50" height="50" relative="1" as="geometry">
            <mxPoint x="400" y="420" as="sourcePoint" />
            <mxPoint x="450" y="370" as="targetPoint" />
          </mxGeometry>
        </mxCell>
        <mxCell id="bgzfuVShhrfwyZQ0xUd9-68" value="N" style="text;html=1;strokeColor=none;fillColor=none;align=center;verticalAlign=middle;whiteSpace=wrap;rounded=0;" vertex="1" parent="1">
          <mxGeometry x="319.5" y="477.5" width="20" height="22.5" as="geometry" />
        </mxCell>
        <mxCell id="bgzfuVShhrfwyZQ0xUd9-69" value="1" style="text;html=1;strokeColor=none;fillColor=none;align=center;verticalAlign=middle;whiteSpace=wrap;rounded=0;" vertex="1" parent="1">
          <mxGeometry x="426" y="503.75" width="20" height="22.5" as="geometry" />
        </mxCell>
        <mxCell id="tuhTgOdRwcqOYQWfniWH-3" value="1" style="text;html=1;strokeColor=none;fillColor=none;align=center;verticalAlign=middle;whiteSpace=wrap;rounded=0;" vertex="1" parent="1">
          <mxGeometry x="315" y="122.5" width="20" height="22.5" as="geometry" />
        </mxCell>
        <mxCell id="tuhTgOdRwcqOYQWfniWH-4" value="" style="endArrow=none;dashed=1;html=1;rounded=0;exitX=-0.148;exitY=1.009;exitDx=0;exitDy=0;exitPerimeter=0;entryX=0;entryY=0.5;entryDx=0;entryDy=0;" edge="1" parent="1" source="bgzfuVShhrfwyZQ0xUd9-62" target="bgzfuVShhrfwyZQ0xUd9-53">
          <mxGeometry width="50" height="50" relative="1" as="geometry">
            <mxPoint x="320" y="170" as="sourcePoint" />
            <mxPoint x="370" y="120" as="targetPoint" />
            <Array as="points">
              <mxPoint x="292" y="78" />
            </Array>
          </mxGeometry>
        </mxCell>
        <mxCell id="tuhTgOdRwcqOYQWfniWH-5" value="" style="endArrow=none;dashed=1;html=1;rounded=0;exitX=1;exitY=0.25;exitDx=0;exitDy=0;entryX=0;entryY=0.5;entryDx=0;entryDy=0;" edge="1" parent="1" source="9lTnDYtxcCjU2Nd0WMdm-4" target="nPtMU7uVs6kKkiSE4Vyv-70">
          <mxGeometry width="50" height="50" relative="1" as="geometry">
            <mxPoint x="470" y="170" as="sourcePoint" />
            <mxPoint x="550" y="140" as="targetPoint" />
          </mxGeometry>
        </mxCell>
        <mxCell id="tuhTgOdRwcqOYQWfniWH-6" value="" style="endArrow=none;dashed=1;html=1;rounded=0;entryX=0.5;entryY=0;entryDx=0;entryDy=0;exitX=1;exitY=0.75;exitDx=0;exitDy=0;" edge="1" parent="1" source="9lTnDYtxcCjU2Nd0WMdm-4" target="9lTnDYtxcCjU2Nd0WMdm-91">
          <mxGeometry width="50" height="50" relative="1" as="geometry">
            <mxPoint x="390" y="260" as="sourcePoint" />
            <mxPoint x="440" y="210" as="targetPoint" />
            <Array as="points">
              <mxPoint x="475" y="158" />
            </Array>
          </mxGeometry>
        </mxCell>
        <mxCell id="tuhTgOdRwcqOYQWfniWH-7" value="" style="endArrow=none;dashed=1;html=1;rounded=0;exitX=0.5;exitY=0;exitDx=0;exitDy=0;entryX=0.093;entryY=0.146;entryDx=0;entryDy=0;entryPerimeter=0;" edge="1" parent="1" source="9lTnDYtxcCjU2Nd0WMdm-112" target="tuhTgOdRwcqOYQWfniWH-8">
          <mxGeometry width="50" height="50" relative="1" as="geometry">
            <mxPoint x="390" y="330" as="sourcePoint" />
            <mxPoint x="222.5" y="255.625" as="targetPoint" />
          </mxGeometry>
        </mxCell>
        <mxCell id="tuhTgOdRwcqOYQWfniWH-8" value="&lt;span style=&quot;font-weight: normal;&quot;&gt;1&lt;/span&gt;" style="text;html=1;strokeColor=none;fillColor=none;align=center;verticalAlign=middle;whiteSpace=wrap;rounded=0;fontStyle=1" vertex="1" parent="1">
          <mxGeometry x="252.5" y="161.25" width="20" height="22.5" as="geometry" />
        </mxCell>
        <mxCell id="tuhTgOdRwcqOYQWfniWH-11" value="" style="endArrow=none;dashed=1;html=1;rounded=0;entryX=0.007;entryY=0.082;entryDx=0;entryDy=0;exitX=0;exitY=0.5;exitDx=0;exitDy=0;entryPerimeter=0;" edge="1" parent="1" source="9lTnDYtxcCjU2Nd0WMdm-97" target="bgzfuVShhrfwyZQ0xUd9-26">
          <mxGeometry width="50" height="50" relative="1" as="geometry">
            <mxPoint x="370" y="250" as="sourcePoint" />
            <mxPoint x="420" y="200" as="targetPoint" />
            <Array as="points">
              <mxPoint x="304" y="325" />
            </Array>
          </mxGeometry>
        </mxCell>
        <mxCell id="tuhTgOdRwcqOYQWfniWH-12" value="" style="endArrow=none;dashed=1;html=1;rounded=0;entryX=0;entryY=0.5;entryDx=0;entryDy=0;exitX=0;exitY=0.75;exitDx=0;exitDy=0;" edge="1" parent="1" source="bgzfuVShhrfwyZQ0xUd9-26" target="nPtMU7uVs6kKkiSE4Vyv-51">
          <mxGeometry width="50" height="50" relative="1" as="geometry">
            <mxPoint x="390" y="320" as="sourcePoint" />
            <mxPoint x="440" y="270" as="targetPoint" />
            <Array as="points">
              <mxPoint x="285" y="443" />
            </Array>
          </mxGeometry>
        </mxCell>
        <mxCell id="tuhTgOdRwcqOYQWfniWH-13" value="" style="endArrow=classic;html=1;rounded=0;entryX=1;entryY=0.404;entryDx=0;entryDy=0;entryPerimeter=0;exitX=0;exitY=0.5;exitDx=0;exitDy=0;" edge="1" parent="1" source="9lTnDYtxcCjU2Nd0WMdm-108" target="9lTnDYtxcCjU2Nd0WMdm-105">
          <mxGeometry width="50" height="50" relative="1" as="geometry">
            <mxPoint x="350" y="520" as="sourcePoint" />
            <mxPoint x="520" y="460" as="targetPoint" />
          </mxGeometry>
        </mxCell>
        <mxCell id="tuhTgOdRwcqOYQWfniWH-14" value="" style="endArrow=none;dashed=1;html=1;rounded=0;entryX=0.5;entryY=1;entryDx=0;entryDy=0;exitX=0.43;exitY=-0.027;exitDx=0;exitDy=0;exitPerimeter=0;" edge="1" parent="1" source="9lTnDYtxcCjU2Nd0WMdm-43" target="9lTnDYtxcCjU2Nd0WMdm-94">
          <mxGeometry width="50" height="50" relative="1" as="geometry">
            <mxPoint x="380" y="420" as="sourcePoint" />
            <mxPoint x="430" y="370" as="targetPoint" />
          </mxGeometry>
        </mxCell>
        <mxCell id="tuhTgOdRwcqOYQWfniWH-15" value="" style="endArrow=none;dashed=1;html=1;rounded=0;entryX=0.5;entryY=1;entryDx=0;entryDy=0;exitX=0.343;exitY=-0.012;exitDx=0;exitDy=0;exitPerimeter=0;" edge="1" parent="1" source="nPtMU7uVs6kKkiSE4Vyv-4" target="nPtMU7uVs6kKkiSE4Vyv-3">
          <mxGeometry width="50" height="50" relative="1" as="geometry">
            <mxPoint x="430" y="700" as="sourcePoint" />
            <mxPoint x="480" y="650" as="targetPoint" />
          </mxGeometry>
        </mxCell>
        <mxCell id="LNcmh8x5IJUn5XtzvB6_-1" value="heslo" style="ellipse;whiteSpace=wrap;html=1;" vertex="1" parent="1">
          <mxGeometry x="-40" y="66.88" width="40" height="30" as="geometry" />
        </mxCell>
        <mxCell id="LNcmh8x5IJUn5XtzvB6_-2" value="role" style="ellipse;whiteSpace=wrap;html=1;" vertex="1" parent="1">
          <mxGeometry x="70" y="65" width="40" height="30" as="geometry" />
        </mxCell>
        <mxCell id="LNcmh8x5IJUn5XtzvB6_-3" value="&lt;u&gt;login&lt;/u&gt;" style="ellipse;whiteSpace=wrap;html=1;" vertex="1" parent="1">
          <mxGeometry x="20" y="66.88" width="40" height="30" as="geometry" />
        </mxCell>
        <mxCell id="LNcmh8x5IJUn5XtzvB6_-5" value="" style="endArrow=none;html=1;rounded=0;entryX=0.75;entryY=0;entryDx=0;entryDy=0;exitX=0.5;exitY=1;exitDx=0;exitDy=0;" edge="1" parent="1" source="LNcmh8x5IJUn5XtzvB6_-3" target="bgzfuVShhrfwyZQ0xUd9-11">
          <mxGeometry width="50" height="50" relative="1" as="geometry">
            <mxPoint x="340" y="260" as="sourcePoint" />
            <mxPoint x="390" y="210" as="targetPoint" />
          </mxGeometry>
        </mxCell>
        <mxCell id="LNcmh8x5IJUn5XtzvB6_-6" value="" style="endArrow=none;html=1;rounded=0;exitX=0.375;exitY=0.968;exitDx=0;exitDy=0;entryX=0.925;entryY=0.008;entryDx=0;entryDy=0;entryPerimeter=0;exitPerimeter=0;" edge="1" parent="1" source="LNcmh8x5IJUn5XtzvB6_-2" target="bgzfuVShhrfwyZQ0xUd9-11">
          <mxGeometry width="50" height="50" relative="1" as="geometry">
            <mxPoint x="130" y="123" as="sourcePoint" />
            <mxPoint x="130" y="145" as="targetPoint" />
          </mxGeometry>
        </mxCell>
        <mxCell id="LNcmh8x5IJUn5XtzvB6_-7" value="" style="endArrow=none;html=1;rounded=0;entryX=0.4;entryY=-0.033;entryDx=0;entryDy=0;exitX=1;exitY=1;exitDx=0;exitDy=0;entryPerimeter=0;" edge="1" parent="1" source="LNcmh8x5IJUn5XtzvB6_-1" target="bgzfuVShhrfwyZQ0xUd9-11">
          <mxGeometry width="50" height="50" relative="1" as="geometry">
            <mxPoint x="75" y="123" as="sourcePoint" />
            <mxPoint x="80" y="145" as="targetPoint" />
          </mxGeometry>
        </mxCell>
        <mxCell id="LNcmh8x5IJUn5XtzvB6_-8" value="má" style="rhombus;whiteSpace=wrap;html=1;" vertex="1" parent="1">
          <mxGeometry x="118" y="127.5" width="52" height="45" as="geometry" />
        </mxCell>
        <mxCell id="LNcmh8x5IJUn5XtzvB6_-9" value="" style="endArrow=none;html=1;rounded=0;entryX=1;entryY=0.5;entryDx=0;entryDy=0;exitX=0;exitY=0.5;exitDx=0;exitDy=0;" edge="1" parent="1" source="LNcmh8x5IJUn5XtzvB6_-8" target="bgzfuVShhrfwyZQ0xUd9-11">
          <mxGeometry width="50" height="50" relative="1" as="geometry">
            <mxPoint x="50" y="75" as="sourcePoint" />
            <mxPoint x="55" y="139" as="targetPoint" />
          </mxGeometry>
        </mxCell>
        <mxCell id="LNcmh8x5IJUn5XtzvB6_-13" value="" style="endArrow=none;dashed=1;html=1;rounded=0;entryX=0;entryY=0.5;entryDx=0;entryDy=0;exitX=1;exitY=0.5;exitDx=0;exitDy=0;" edge="1" parent="1" source="LNcmh8x5IJUn5XtzvB6_-8" target="9lTnDYtxcCjU2Nd0WMdm-4">
          <mxGeometry width="50" height="50" relative="1" as="geometry">
            <mxPoint x="210" y="240" as="sourcePoint" />
            <mxPoint x="260" y="190" as="targetPoint" />
          </mxGeometry>
        </mxCell>
        <mxCell id="LNcmh8x5IJUn5XtzvB6_-14" value="1" style="text;html=1;strokeColor=none;fillColor=none;align=center;verticalAlign=middle;whiteSpace=wrap;rounded=0;" vertex="1" parent="1">
          <mxGeometry x="70" y="131.25" width="20" height="22.5" as="geometry" />
        </mxCell>
        <mxCell id="LNcmh8x5IJUn5XtzvB6_-15" value="1" style="text;html=1;strokeColor=none;fillColor=none;align=center;verticalAlign=middle;whiteSpace=wrap;rounded=0;" vertex="1" parent="1">
          <mxGeometry x="209" y="128.75" width="20" height="22.5" as="geometry" />
        </mxCell>
      </root>
    </mxGraphModel>
  </diagram>
</mxfile>
